<svg xmlns="http://www.w3.org/2000/svg" id="Capa_1" enable-background="new 0 0 511.397 511.397" height="512"
   viewBox="0 0 511.397 511.397" width="512">
   <g id="editor-gd9c143622a_0_117">
      <g>
         <g></g>
         <g>
            <path stroke="#4E5365" stroke-opacity="1" stroke-width="1143" stroke-linecap="butt" stroke-linejoin="round"
               stroke-miterlimit="8"
               d="M 101705 72641.5 C 101705 63260.39123937415 109309.89123937413 55655.5 118691 55655.5 123195.96729641448 55655.5 127516.42286091638 57445.09129044699 130701.9157852347 60630.5842147653 133887.408709553 63816.077139083616 135677 68136.5327035855 135677 72641.5 135677 82022.60876062585 128072.10876062587 89627.5 118691 89627.5 109309.89123937415 89627.5 101705 82022.60876062587 101705 72641.5 Z">
            </path>
         </g>
         <g>
            <path fill="#000" fill-opacity="0" stroke="#000" stroke-opacity="0" stroke-width="4238.238702201623"
               stroke-linecap="round" stroke-linejoin="round" stroke-miterlimit="10" pointer-events="visiblePainted"
               d="M 101705 72641.5 C 101705 63260.39123937415 109309.89123937413 55655.5 118691 55655.5 123195.96729641448 55655.5 127516.42286091638 57445.09129044699 130701.9157852347 60630.5842147653 133887.408709553 63816.077139083616 135677 68136.5327035855 135677 72641.5 135677 82022.60876062585 128072.10876062587 89627.5 118691 89627.5 109309.89123937415 89627.5 101705 82022.60876062587 101705 72641.5 Z">
            </path>
         </g>
      </g>
   </g>
</svg>