<?xml version="1.0" encoding="UTF-8"?>
<!DOCTYPE svg PUBLIC "-//W3C//DTD SVG 1.1//EN" "http://www.w3.org/Graphics/SVG/1.1/DTD/svg11.dtd">
<!-- Creator: CorelDRAW 2018 (64-Bit) -->
<svg xmlns="http://www.w3.org/2000/svg" xml:space="preserve" width="146.809mm" height="33.0245mm" version="1.1" style="shape-rendering:geometricPrecision; text-rendering:geometricPrecision; image-rendering:optimizeQuality; fill-rule:evenodd; clip-rule:evenodd"
viewBox="0 0 15372.6 3458.04"
 xmlns:xlink="http://www.w3.org/1999/xlink">
 <defs>
  <style type="text/css">
   <![CDATA[
    .fil0 {fill:#339966}
    .fil2 {fill:#339966;fill-rule:nonzero}
    .fil1 {fill:#666666;fill-rule:nonzero}
   ]]>
  </style>
 </defs>
 <g id="Слой_x0020_1">
  <metadata id="CorelCorpID_0Corel-Layer"/>
  <path class="fil0" d="M3006.49 263.88l-116.6 113.04 -0.06 0.06 0 0 -252.73 245c16.18,-31.53 28.09,-65.48 35.12,-101.23 19.52,-99.63 -0.95,-200.9 -57.59,-285.19 -56.67,-84.26 -142.74,-141.4 -242.39,-160.92 -78.8,-15.44 -158.57,-5.79 -230.18,26.89 -2.61,-10.74 -8.1,-20.94 -16.63,-29.21 -67.88,-65.79 -168.77,-64.17 -234.66,3.79l-577.23 595.4c-2.31,-1.61 -4.7,-3.2 -7.06,-4.8 78.61,-69.99 128.25,-171.88 128.25,-285.19 0,-181.36 -133.97,-343.01 -312.59,-375.49 -0.13,0 -0.22,-0.03 -0.31,-0.06 -229.61,-41.74 -450.92,141.59 -450.92,375.56 0,120.81 56.42,228.58 144.23,298.64 -3.4,2.58 -6.8,5.18 -10.14,7.88l-432.13 -418.94 -94.33 -83.53c-26.28,-14.91 -56.09,-22.8 -87.18,-22.25 -99.33,1.53 -192.87,98.33 -191.34,197.38 0.69,45.93 19.16,88.74 52,120.55l59.47 57.65 91.79 88.96 444.34 430.76 0 227.74c-26.22,45.58 -41.32,98.33 -41.32,154.6l0 315.2c0,2 0.09,3.98 0.28,5.92 -80.86,69.38 -132.22,172.17 -132.22,286.81l0 353.66c-123,19.66 -217.34,126.49 -217.34,254.96 0,129.69 96.11,237.34 220.84,255.52l0 223.63c0,177.19 144.18,321.36 321.37,321.36 94.18,0 173.44,-32.86 229.26,-94.99 53.47,-59.54 83.85,-143.63 90.65,-250.4l115.66 0.01c33.4,0 60.48,-27.09 60.48,-60.49 0,-33.43 -27.08,-60.51 -60.48,-60.51l-215.9 0c-44.5,0 -80.73,-36.2 -80.73,-80.7l0 -112.2c0,-44.49 36.23,-80.7 80.73,-80.7l1342.07 0c44.49,0 80.73,36.21 80.73,80.7l0 112.2c0,44.5 -36.24,80.7 -80.73,80.7l-884.19 0c-33.41,0 -60.49,27.11 -60.49,60.51 0,33.4 27.08,60.49 60.49,60.49l815.7 0 0 24.02c0,177.2 144.17,321.37 321.36,321.37 177.23,0 321.37,-144.17 321.37,-321.37l0 -242.03c91.7,-39.7 156.03,-131.01 156.03,-237.11 0,-107.43 -65.99,-199.74 -159.53,-238.57l0 -370.06c0,-53.42 -12.71,-105.36 -35.47,-153.55 -11.23,-23.77 -24.73,-46.4 -39.22,-68.27 -7.12,-10.74 -21.24,-23.96 -25.36,-35.95 -4.73,-13.7 0.89,-20.02 0.89,-34.93l0 -315.23c0,-103.55 -50.95,-195.41 -129.05,-251.95l0 -108.2 472.59 -458.16 91.76 -88.96 45.77 -44.37c32.84,-31.82 51.3,-74.66 52.03,-120.59 0.7,-45.94 -16.43,-89.29 -48.25,-122.11 0,0 -7.59,-7.85 -7.62,-7.85l-4.2 -4.36 -10.71 -11.03c-31.84,-32.84 -74.66,-51.31 -120.59,-52.03 -24.86,-0.38 -48.88,4.61 -70.97,14.21l-96.82 78.31zm-611.17 2092.25c144.74,0 262.5,-117.76 262.5,-262.5 0,-144.74 -117.76,-262.5 -262.5,-262.5 -144.74,0 -262.5,117.76 -262.5,262.5 0,144.74 117.76,262.5 262.5,262.5zm0 -404.04c78.03,0 141.54,63.51 141.54,141.54 0,78.03 -63.51,141.53 -141.54,141.53 -78.03,0 -141.5,-63.5 -141.5,-141.53 0,-78.03 63.47,-141.54 141.5,-141.54zm-1387.62 -120.96c-144.74,0 -262.5,117.76 -262.5,262.5 0,144.74 117.76,262.5 262.5,262.5 144.74,0 262.5,-117.76 262.5,-262.5 0,-144.74 -117.76,-262.5 -262.5,-262.5zm0 404.03c-78.03,0 -141.53,-63.5 -141.53,-141.53 0,-78.03 63.5,-141.54 141.53,-141.54 78.03,0 141.51,63.51 141.51,141.54 0,78.03 -63.48,141.53 -141.51,141.53zm46.89 -2114.7c143.05,0 259.01,116.41 259.01,260.02 0,143.59 -115.97,260.01 -259.01,260.01 -143.05,0 -259,-116.42 -259,-260.01 0,-143.61 115.96,-260.02 259,-260.02zm-888.47 302.92l-22.02 -21.36c-11.7,-11.38 -18.31,-26.73 -18.57,-43.26 -0.25,-16.57 5.87,-32.14 17.23,-43.86l1.5 -1.5 5.85 -6.07c12.04,-12.39 28.09,-18.62 44.18,-18.62 10.9,0 21.77,2.92 31.43,8.64l92.52 87.31 46.85 45.42c-28.58,38.96 -54.58,75.04 -79.05,109.53l0 0 -28.16 -27.27 -91.77 -88.96zm1988.44 -190.74c57.43,-38.65 126.5,-52.6 194.43,-39.29 67.92,13.32 126.63,52.29 165.24,109.76 27.46,40.84 42.4,87.59 43.96,135.62l-0.21 -0.07c0.13,3.31 0.21,6.63 0.21,9.97 0,143.6 -115.97,260.01 -259.01,260.01 -130.72,0 -238.8,-97.21 -256.46,-223.56 -4.15,-28.25 -3.68,-57.65 2.13,-87.22 0.64,-3.31 1.39,-6.54 2.16,-9.82l0.23 0.08c9.71,-40.86 29.01,-77.97 55.38,-108.81l-0.4 -0.14c15.1,-17.58 32.58,-33.28 52.35,-46.53zm-176.91 -72.33c9.51,-9.79 20.44,-15.07 31.62,-15.26 11.23,-0.07 22.22,4.7 31.95,14.17 1.69,1.62 3.43,3.09 5.25,4.48 -62.01,54.95 -104.19,128.25 -120.37,210.92 -0.2,0.92 -0.32,1.87 -0.48,2.8l-93.32 -67.15 145.35 -149.96zm-307.44 969.75l-177.36 0 0 -103.77 445.45 -459.54c15.32,46.15 39.29,88.87 70.41,125.83 -7.4,5.06 -14.69,10.37 -21.77,15.9l-14.6 -4c-94.81,-26.1 -193.18,29.81 -219.28,124.62l-82.86 300.96zm-1296.24 -505.2c24.44,-34.65 50.35,-70.72 78.85,-109.75l309.3 299.81c11.7,11.35 27.53,17.49 43.8,17.04 16.3,-0.44 31.72,-7.47 42.77,-19.46 25.33,-27.52 55.91,-50.25 89.25,-66.74 36.27,11.48 74.89,17.71 114.9,17.71 47.39,0 92.74,-8.74 134.64,-24.6 32.74,14.04 63.35,33.97 89.38,58.58 11.7,11.03 26.63,16.49 41.54,16.49 15.8,0 31.59,-6.14 43.44,-18.37l385.35 -397.53 109.69 78.92 -468.3 483.09c-11.54,11.88 -17.68,27.97 -17.04,44.5 0.16,3.94 0.32,7.91 0.32,11.88l0 113.59 -454.65 0c-53.77,0 -104.41,13.77 -148.59,37.88l0 -134.89c0,-16.37 -6.64,-32.04 -18.4,-43.41l-376.26 -364.75zm624.01 2486.71c-10.99,149.67 -77.67,225.51 -198.74,225.51 -110.48,0 -200.37,-89.92 -200.37,-200.4l0 -220.87 218.45 0c2.42,101.94 80.84,185.43 180.67,195.76l-0.01 0zm1816.24 25.11c0,110.48 -89.88,200.38 -200.38,200.38 -110.48,0 -200.37,-89.89 -200.37,-200.38l0 -31.02c84.32,-22.76 146.94,-98.94 149.1,-189.88l251.64 0 0 220.9zm18.74 -616.38c75.72,0 137.28,61.57 137.28,137.25 0,59.53 -38.14,110.17 -91.21,129.17l-316.73 0c-6.26,-105.62 -94.15,-189.66 -201.32,-189.66l-1342.07 0c-107.17,0 -195.06,84.04 -201.32,189.66l-339.68 0 0 2.8c-57.56,-16.33 -99.86,-69.26 -99.86,-131.97 0,-75.67 61.6,-137.25 137.28,-137.25l2317.65 0zm-1282.74 -728.33l1003.55 0c141.68,0 256.94,115.26 256.94,256.94l0 339.08 -2215.35 0 0 -339.08c0,-141.65 115.26,-256.94 256.94,-256.94l455.94 0c33.43,0 60.51,-27.08 60.51,-60.48 0,-33.43 -27.11,-60.49 -60.51,-60.49l-455.94 0c-43.79,0 -85.84,7.57 -125,21.33l0 -251.34c0,-34.87 9.48,-67.52 25.94,-95.64 4.07,-4.54 7.43,-9.7 9.98,-15.35 34.55,-47.77 90.68,-78.95 154,-78.95l1604.39 0c104.72,0 189.94,85.21 189.94,189.95l0 264.63c-48.05,-22.19 -101.49,-34.65 -157.77,-34.65l-1003.55 0c-33.4,0 -60.48,27.09 -60.48,60.49 0,33.43 27.08,60.51 60.48,60.51zm1050.56 -780.07c-11.95,11.56 -18.6,27.52 -18.41,44.11l0.06 80.06c-19.66,-3.91 -40.01,-6.01 -60.83,-6.01l-469.26 0 6.9 -45.54c5.02,-33.03 -17.68,-63.85 -50.72,-68.88 -33.06,-5.06 -63.86,17.68 -68.88,50.72l-9.7 63.7 -134.25 0 74.02 -268.86c4,-14.65 13.6,-26.92 27.02,-34.51 13.41,-7.63 28.86,-9.57 43.51,-5.57l33.09 9.13c0.13,0.03 0.25,0.06 0.36,0.09 26.66,7.25 55.02,0.95 75.93,-16.91 17.39,-14.85 36.24,-27.69 56.17,-38.49 36.23,21.46 76.63,37.28 120.3,45.83 24.6,4.83 49.33,7.21 73.86,7.21 51.2,0 101.61,-10.4 148.69,-30.64 1.55,1.5 74.3,62.17 90.62,62.62 16.27,0.44 32.06,-5.7 43.76,-17.04l329.83 -319.75c28.5,39.03 54.41,75.1 78.82,109.75l-390.88 378.96zm571.57 -715.01c16.53,0.25 31.88,6.83 43.22,18.52l7.38 7.63c11.31,11.7 17.41,27.24 17.16,43.77 -0.26,16.55 -6.84,31.91 -18.57,43.29l-106.4 103.12 -35.55 34.47c-24.47,-34.49 -50.47,-70.56 -79.05,-109.53l51.86 -50.31 104.29 -89.25c5.08,-1.21 10.29,-1.84 15.63,-1.72l0 0z"/>
  <g id="_2801845121008">
   <path class="fil1" d="M4972.89 2682.32c-119.88,0 -230.05,-22.37 -330.51,-67.11 -100.47,-44.74 -182.78,-108.48 -246.94,-191.22l227.95 -273.53c96.24,130.01 205.99,195.01 329.24,195.01 167.16,0 250.74,-97.93 250.74,-293.79l0 -843.39 -623.04 0 0 -329.24 1030.8 0 0 1149.84c0,217.81 -54.03,381.17 -162.09,490.08 -108.06,108.9 -266.77,163.35 -476.14,163.35zm1493.52 -1413.24c211.06,0 373.15,50.23 486.28,150.7 113.13,100.46 169.68,252 169.68,454.61l0 777.53 -369.77 0 0 -169.68c-74.29,126.63 -212.74,189.95 -415.36,189.95 -104.69,0 -195.44,-17.73 -272.27,-53.18 -76.82,-35.47 -135.5,-84.43 -176.02,-146.9 -40.52,-62.47 -60.78,-133.39 -60.78,-212.74 0,-126.64 47.71,-226.26 143.1,-298.86 95.4,-72.61 242.72,-108.91 441.96,-108.91l314.05 0c0,-86.11 -26.17,-152.39 -78.51,-198.82 -52.35,-46.43 -130.86,-69.64 -235.54,-69.64 -72.61,0 -143.94,11.39 -214.01,34.19 -70.07,22.8 -129.59,53.61 -178.55,92.44l-141.83 -276.06c74.29,-52.35 163.36,-92.87 267.19,-121.57 103.84,-28.7 210.64,-43.06 320.39,-43.06zm-30.39 1137.18c67.54,0 127.48,-15.61 179.82,-46.85 52.35,-31.24 89.49,-77.25 111.43,-138.03l0 -139.3 -270.99 0c-162.09,0 -243.14,53.18 -243.14,159.56 0,50.65 19.84,90.75 59.52,120.3 39.68,29.54 94.14,44.31 163.36,44.31zm2716.81 -1137.18c170.53,0 306.04,50.23 406.5,150.7 100.46,100.46 150.69,251.16 150.69,452.08l0 780.07 -395.1 0 0 -719.28c0,-108.06 -22.37,-188.68 -67.11,-241.87 -44.74,-53.18 -108.49,-79.78 -191.22,-79.78 -92.86,0 -166.31,29.97 -220.34,89.92 -54.03,59.94 -81.05,149 -81.05,267.19l0 683.83 -395.1 0 0 -719.28c0,-214.44 -86.11,-321.65 -258.33,-321.65 -91.17,0 -163.78,29.97 -217.81,89.92 -54.03,59.94 -81.05,149 -81.05,267.19l0 683.83 -395.1 0 0 -1362.59 377.37 0 0 157.03c50.65,-57.4 112.7,-101.3 186.16,-131.7 73.44,-30.39 154.07,-45.59 241.86,-45.59 96.25,0 183.2,18.99 260.87,56.98 77.67,38 140.15,93.29 187.42,165.89 55.72,-70.91 126.21,-125.79 211.48,-164.63 85.27,-38.83 178.55,-58.25 279.86,-58.25z"/>
   <path class="fil2" d="M10431.08 1208.3l0 468.55 820.59 0 0 329.24 -820.59 0 0 645.84 -410.3 0 0 -1772.88 1339.79 0 0 329.24 -929.49 0zm1460.6 260.87c47.28,-65.84 111.01,-115.65 191.21,-149.42 80.21,-33.77 172.65,-50.66 277.33,-50.66l0 364.71c-43.9,-3.37 -73.44,-5.07 -88.64,-5.07 -113.13,0 -201.77,31.66 -265.94,94.98 -64.16,63.31 -96.24,158.29 -96.24,284.92l0 643.3 -395.1 0 0 -1362.59 377.37 0 0 179.82zm1954.47 506.54c0,5.07 -2.53,40.52 -7.6,106.38l-1030.8 0c18.58,84.42 62.47,151.11 131.7,200.08 69.24,48.96 155.34,73.44 258.33,73.44 70.92,0 133.81,-10.55 188.69,-31.66 54.88,-21.1 105.95,-54.45 153.22,-100.04l210.22 227.95c-128.32,146.9 -315.75,220.34 -562.26,220.34 -153.65,0 -289.57,-29.97 -407.77,-89.92 -118.19,-59.94 -209.36,-143.09 -273.53,-249.46 -64.16,-106.38 -96.24,-227.1 -96.24,-362.18 0,-133.38 31.65,-253.68 94.97,-360.91 63.32,-107.21 150.27,-190.79 260.87,-250.73 110.6,-59.94 234.27,-89.92 371.03,-89.92 133.39,0 254.11,28.71 362.18,86.11 108.06,57.4 192.91,139.72 254.54,246.94 61.62,107.21 92.44,231.74 92.44,373.57zm-706.62 -407.77c-89.49,0 -164.62,25.33 -225.4,75.99 -60.78,50.65 -97.94,119.87 -111.44,207.67l671.17 0c-13.51,-86.11 -50.66,-154.91 -111.44,-206.42 -60.78,-51.5 -135.08,-77.25 -222.88,-77.25zm2233.07 407.77c0,5.07 -2.53,40.52 -7.6,106.38l-1030.8 0c18.58,84.42 62.47,151.11 131.7,200.08 69.24,48.96 155.34,73.44 258.33,73.44 70.92,0 133.81,-10.55 188.69,-31.66 54.88,-21.1 105.95,-54.45 153.22,-100.04l210.22 227.95c-128.32,146.9 -315.75,220.34 -562.26,220.34 -153.65,0 -289.57,-29.97 -407.77,-89.92 -118.19,-59.94 -209.36,-143.09 -273.53,-249.46 -64.16,-106.38 -96.24,-227.1 -96.24,-362.18 0,-133.38 31.65,-253.68 94.97,-360.91 63.32,-107.21 150.27,-190.79 260.87,-250.73 110.6,-59.94 234.27,-89.92 371.03,-89.92 133.39,0 254.11,28.71 362.18,86.11 108.06,57.4 192.91,139.72 254.54,246.94 61.62,107.21 92.44,231.74 92.44,373.57zm-706.62 -407.77c-89.49,0 -164.62,25.33 -225.4,75.99 -60.78,50.65 -97.94,119.87 -111.44,207.67l671.17 0c-13.51,-86.11 -50.66,-154.91 -111.44,-206.42 -60.78,-51.5 -135.08,-77.25 -222.88,-77.25z"/>
  </g>
 </g>
</svg>
