<?xml version="1.0" encoding="UTF-8"?>
<!DOCTYPE svg PUBLIC "-//W3C//DTD SVG 1.1//EN" "http://www.w3.org/Graphics/SVG/1.1/DTD/svg11.dtd">
<!-- Creator: CorelDRAW 2018 (64-Bit) -->
<svg xmlns="http://www.w3.org/2000/svg" xml:space="preserve" width="149.64mm" height="38.1mm" version="1.1" style="shape-rendering:geometricPrecision; text-rendering:geometricPrecision; image-rendering:optimizeQuality; fill-rule:evenodd; clip-rule:evenodd"
viewBox="0 0 15169.55 3862.34"
 xmlns:xlink="http://www.w3.org/1999/xlink">
 <defs>
  <style type="text/css">
   <![CDATA[
    .fil0 {fill:#339966}
    .fil2 {fill:#339966;fill-rule:nonzero}
    .fil1 {fill:#666666;fill-rule:nonzero}
   ]]>
  </style>
 </defs>
 <g id="Слой_x0020_1">
  <metadata id="CorelCorpID_0Corel-Layer"/>
  <path class="fil0" d="M709.62 0l2443.11 0c390.29,0 709.62,319.33 709.62,709.62l0 2443.11c0,390.29 -319.33,709.62 -709.62,709.62l-2443.11 0c-390.29,0 -709.62,-319.33 -709.62,-709.62l0 -2443.11c0,-390.29 319.33,-709.62 709.62,-709.62zm2288.18 772.1l-95.28 92.37 -0.05 0.05 0 0 -206.53 200.21c13.22,-25.77 22.96,-53.51 28.7,-82.73 15.95,-81.41 -0.78,-164.17 -47.07,-233.06 -46.31,-68.85 -116.64,-115.55 -198.07,-131.5 -64.39,-12.62 -129.59,-4.72 -188.1,21.98 -2.13,-8.78 -6.62,-17.11 -13.58,-23.87 -55.47,-53.76 -137.92,-52.44 -191.76,3.1l-471.71 486.55c-1.89,-1.32 -3.84,-2.63 -5.77,-3.92 64.24,-57.2 104.81,-140.46 104.81,-233.06 0,-148.2 -109.47,-280.31 -255.45,-306.85 -0.1,0 -0.18,-0.02 -0.25,-0.05 -187.63,-34.11 -368.48,115.71 -368.48,306.9 0,98.73 46.1,186.8 117.86,244.05 -2.78,2.1 -5.56,4.24 -8.28,6.44l-353.14 -342.35 -77.08 -68.26c-21.48,-12.19 -45.84,-18.63 -71.25,-18.19 -81.17,1.25 -157.62,80.36 -156.36,161.3 0.56,37.53 15.65,72.52 42.49,98.52l48.6 47.12 75.01 72.7 363.12 352.02 0 186.1c-21.43,37.24 -33.77,80.36 -33.77,126.33l0 257.58c0,1.63 0.07,3.25 0.23,4.84 -66.09,56.7 -108.05,140.69 -108.05,234.38l0 289.02c-100.51,16.07 -177.61,103.36 -177.61,208.34 0,105.99 78.54,193.96 180.47,208.81l0 182.75c0,144.8 117.82,262.62 262.62,262.62 76.96,0 141.74,-26.85 187.35,-77.63 43.69,-48.66 68.52,-117.37 74.07,-204.62l94.52 0.01c27.3,0 49.42,-22.14 49.42,-49.43 0,-27.32 -22.12,-49.45 -49.42,-49.45l-176.43 0c-36.37,0 -65.97,-29.58 -65.97,-65.95l0 -91.68c0,-36.36 29.6,-65.95 65.97,-65.95l1096.72 0c36.36,0 65.97,29.59 65.97,65.95l0 91.68c0,36.37 -29.61,65.95 -65.97,65.95l-722.55 0c-27.3,0 -49.43,22.15 -49.43,49.45 0,27.29 22.13,49.43 49.43,49.43l666.58 0 0 19.63c0,144.81 117.81,262.62 262.61,262.62 144.83,0 262.62,-117.81 262.62,-262.62l0 -197.78c74.94,-32.44 127.51,-107.06 127.51,-193.77 0,-87.79 -53.92,-163.22 -130.37,-194.96l0 -302.41c0,-43.65 -10.38,-86.1 -28.98,-125.47 -9.16,-19.43 -20.2,-37.92 -32.05,-55.8 -5.82,-8.78 -17.35,-19.58 -20.72,-29.38 -3.86,-11.19 0.73,-16.36 0.73,-28.55l0 -257.6c0,-84.62 -41.64,-159.68 -105.46,-205.89l0 -88.42 386.2 -374.4 74.98 -72.71 37.41 -36.25c26.83,-26 41.92,-61.01 42.52,-98.55 0.58,-37.54 -13.42,-72.96 -39.42,-99.78 0,0 -6.2,-6.42 -6.23,-6.42l-3.43 -3.57 -8.76 -9c-26.02,-26.83 -61.01,-41.93 -98.54,-42.53 -20.32,-0.3 -39.95,3.77 -58.01,11.62l-79.11 64zm-499.44 1709.76c118.28,0 214.51,-96.23 214.51,-214.52 0,-118.28 -96.22,-214.51 -214.51,-214.51 -118.28,0 -214.52,96.22 -214.52,214.51 0,118.28 96.23,214.52 214.52,214.52zm0 -330.17c63.76,0 115.66,51.89 115.66,115.66 0,63.77 -51.89,115.66 -115.66,115.66 -63.77,0 -115.64,-51.88 -115.64,-115.66 0,-63.76 51.86,-115.66 115.64,-115.66zm-1133.96 -98.85c-118.28,0 -214.51,96.22 -214.51,214.51 0,118.28 96.22,214.52 214.51,214.52 118.28,0 214.52,-96.23 214.52,-214.52 0,-118.28 -96.23,-214.51 -214.52,-214.51zm0 330.16c-63.76,0 -115.66,-51.88 -115.66,-115.66 0,-63.76 51.89,-115.66 115.66,-115.66 63.76,0 115.64,51.89 115.64,115.66 0,63.77 -51.87,115.66 -115.64,115.66zm38.32 -1728.11c116.89,0 211.67,95.13 211.67,212.49 0,117.34 -94.77,212.47 -211.67,212.47 -116.89,0 -211.66,-95.13 -211.66,-212.47 0,-117.36 94.76,-212.49 211.66,-212.49zm-726.04 247.54l-18 -17.46c-9.55,-9.31 -14.96,-21.85 -15.17,-35.35 -0.2,-13.53 4.79,-26.26 14.07,-35.85l1.23 -1.23 4.78 -4.96c9.84,-10.13 22.96,-15.22 36.1,-15.22 8.91,0 17.79,2.39 25.69,7.06l75.61 71.35 38.28 37.12c-23.36,31.84 -44.59,61.32 -64.6,89.5l0 0 -23.01 -22.28 -74.99 -72.7zm1624.92 -155.87c46.94,-31.59 103.38,-42.98 158.89,-32.11 55.49,10.89 103.47,42.73 135.03,89.7 22.43,33.37 34.65,71.58 35.93,110.82l-0.17 -0.06c0.1,2.71 0.17,5.42 0.17,8.15 0,117.35 -94.77,212.48 -211.67,212.48 -106.82,0 -195.14,-79.45 -209.57,-182.7 -3.4,-23.08 -3.01,-47.11 1.73,-71.28 0.53,-2.71 1.14,-5.35 1.76,-8.03l0.18 0.07c7.94,-33.39 23.71,-63.71 45.26,-88.92l-0.32 -0.11c12.34,-14.36 26.62,-27.19 42.77,-38.03zm-144.57 -59.11c7.78,-8 16.71,-12.32 25.85,-12.47 9.16,-0.06 18.16,3.84 26.1,11.58 1.38,1.33 2.81,2.52 4.29,3.66 -50.68,44.91 -85.14,104.81 -98.36,172.37 -0.16,0.75 -0.26,1.53 -0.4,2.28l-76.25 -54.87 118.77 -122.54zm-251.23 792.47l-144.93 0 0 -84.8 364.01 -375.53c12.52,37.71 32.11,72.62 57.54,102.83 -6.05,4.13 -12,8.46 -17.79,12.99l-11.92 -3.26c-77.48,-21.34 -157.87,24.36 -179.2,101.83l-67.71 245.94zm-1059.28 -412.85c19.97,-28.31 41.14,-57.79 64.43,-89.69l252.76 245c9.56,9.28 22.49,14.29 35.8,13.93 13.32,-0.36 25.91,-6.1 34.95,-15.91 20.7,-22.48 45.68,-41.06 72.93,-54.54 29.64,9.38 61.2,14.47 93.89,14.47 38.73,0 75.79,-7.14 110.03,-20.09 26.75,11.48 51.76,27.76 73.04,47.87 9.56,9 21.75,13.47 33.94,13.47 12.92,0 25.82,-5.02 35.5,-15.01l314.91 -324.85 89.63 64.49 -382.7 394.77c-9.43,9.71 -14.44,22.86 -13.92,36.37 0.13,3.21 0.26,6.46 0.26,9.71l0 92.83 -371.53 0c-43.95,0 -85.33,11.25 -121.43,30.96l0 -110.23c0,-13.37 -5.42,-26.18 -15.03,-35.48l-307.48 -298.07zm509.93 2032.11c-8.98,122.32 -63.47,184.29 -162.41,184.29 -90.28,0 -163.74,-73.49 -163.74,-163.77l0 -180.49 178.52 0c1.98,83.3 66.06,151.53 147.64,159.97l-0.01 0zm1484.21 20.52c0,90.28 -73.46,163.75 -163.75,163.75 -90.28,0 -163.74,-73.47 -163.74,-163.75l0 -25.34c68.91,-18.6 120.09,-80.86 121.85,-155.17l205.64 0 0 180.52zm15.32 -503.7c61.87,0 112.18,50.31 112.18,112.15 0,48.65 -31.16,90.03 -74.54,105.56l-258.83 0c-5.12,-86.31 -76.93,-154.99 -164.52,-154.99l-1096.72 0c-87.59,0 -159.4,68.68 -164.52,154.99l-277.58 0 0 2.28c-47.04,-13.34 -81.62,-56.59 -81.62,-107.84 0,-61.84 50.34,-112.15 112.19,-112.15l1893.96 0zm-1048.24 -595.19l820.09 0c115.78,0 209.97,94.19 209.97,209.97l0 277.1 -1810.37 0 0 -277.1c0,-115.76 94.19,-209.97 209.98,-209.97l372.59 0c27.32,0 49.45,-22.13 49.45,-49.42 0,-27.33 -22.15,-49.44 -49.45,-49.44l-372.59 0c-35.78,0 -70.15,6.18 -102.15,17.44l0 -205.39c0,-28.5 7.74,-55.18 21.2,-78.16 3.33,-3.71 6.07,-7.93 8.15,-12.55 28.24,-39.03 74.1,-64.51 125.85,-64.51l1311.09 0c85.58,0 155.21,69.63 155.21,155.22l0 216.25c-39.26,-18.14 -82.92,-28.31 -128.92,-28.31l-820.09 0c-27.3,0 -49.43,22.13 -49.43,49.43 0,27.32 22.13,49.45 49.43,49.45zm858.5 -637.46c-9.76,9.44 -15.2,22.48 -15.04,36.05l0.05 65.43c-16.07,-3.19 -32.69,-4.92 -49.71,-4.92l-383.48 0 5.65 -37.21c4.1,-26.99 -14.45,-52.18 -41.45,-56.28 -27.02,-4.14 -52.19,14.45 -56.29,41.45l-7.92 52.05 -109.71 0 60.49 -219.71c3.26,-11.97 11.11,-22 22.07,-28.2 10.97,-6.23 23.59,-7.82 35.56,-4.55l27.04 7.46c0.1,0.03 0.2,0.05 0.29,0.08 21.79,5.92 44.95,0.77 62.04,-13.83 14.21,-12.12 29.61,-22.62 45.9,-31.45 29.6,17.53 62.62,30.46 98.31,37.45 20.09,3.94 40.31,5.9 60.36,5.9 41.84,0 83.04,-8.5 121.51,-25.04 1.27,1.23 60.72,50.8 74.05,51.17 13.29,0.35 26.2,-4.66 35.75,-13.93l269.53 -261.29c23.3,31.89 44.46,61.37 64.41,89.69l-319.42 309.69zm467.07 -584.31c13.51,0.21 26.06,5.59 35.33,15.15l6.03 6.23c9.25,9.56 14.23,22.25 14.02,35.76 -0.21,13.53 -5.59,26.07 -15.17,35.38l-86.95 84.26 -29.05 28.17c-19.99,-28.18 -41.24,-57.66 -64.6,-89.5l42.38 -41.12 85.23 -72.93c4.16,-0.99 8.41,-1.51 12.77,-1.41l0 0z"/>
  <g id="_2801700050944">
   <path class="fil1" d="M5101.31 2892.31c-116.06,0 -222.72,-21.65 -319.98,-64.97 -97.27,-43.32 -176.96,-105.02 -239.07,-185.13l220.68 -264.81c93.17,125.87 199.42,188.8 318.75,188.8 161.83,0 242.75,-94.8 242.75,-284.42l0 -816.51 -603.18 0 0 -318.75 997.94 0 0 1113.19c0,210.87 -52.31,369.02 -156.93,474.46 -104.62,105.43 -258.27,158.14 -460.97,158.14zm1445.92 -1368.19c204.33,0 361.26,48.63 470.78,145.9 109.52,97.26 164.28,243.97 164.28,440.12l0 752.75 -357.98 0 0 -164.28c-71.92,122.59 -205.96,183.89 -402.12,183.89 -101.35,0 -189.21,-17.16 -263.59,-51.49 -74.37,-34.34 -131.18,-81.74 -170.41,-142.22 -39.23,-60.48 -58.85,-129.14 -58.85,-205.96 0,-122.6 46.19,-219.05 138.54,-289.33 92.36,-70.29 234.98,-105.44 427.87,-105.44l304.04 0c0,-83.37 -25.33,-147.53 -76.01,-192.48 -50.68,-44.95 -126.69,-67.42 -228.03,-67.42 -70.29,0 -139.35,11.03 -207.19,33.1 -67.84,22.07 -125.46,51.9 -172.86,89.49l-137.31 -267.26c71.92,-50.68 158.15,-89.91 258.68,-117.7 100.53,-27.79 203.92,-41.68 310.17,-41.68zm-29.42 1100.93c65.39,0 123.41,-15.11 174.09,-45.35 50.68,-30.24 86.63,-74.78 107.88,-133.63l0 -134.86 -262.36 0c-156.93,0 -235.39,51.49 -235.39,154.47 0,49.03 19.21,87.86 57.62,116.47 38.41,28.6 91.14,42.9 158.15,42.9zm2630.22 -1100.93c165.1,0 296.29,48.63 393.54,145.9 97.26,97.26 145.89,243.16 145.89,437.67l0 755.2 -382.5 0 0 -696.36c0,-104.62 -21.65,-182.67 -64.97,-234.16 -43.32,-51.49 -105.03,-77.24 -185.13,-77.24 -89.9,0 -161.01,29.01 -213.32,87.05 -52.31,58.03 -78.46,144.26 -78.46,258.68l0 662.03 -382.5 0 0 -696.36c0,-207.6 -83.37,-311.4 -250.1,-311.4 -88.27,0 -158.56,29.01 -210.87,87.05 -52.31,58.03 -78.46,144.26 -78.46,258.68l0 662.03 -382.5 0 0 -1319.16 365.34 0 0 152.02c49.03,-55.57 109.11,-98.07 180.22,-127.5 71.1,-29.42 149.16,-44.14 234.15,-44.14 93.18,0 177.36,18.39 252.55,55.17 75.2,36.79 135.68,90.31 181.45,160.61 53.94,-68.65 122.19,-121.78 204.73,-159.38 82.55,-37.59 172.86,-56.39 270.94,-56.39z"/>
   <path class="fil2" d="M10385.53 1465.27l0 453.62 794.44 0 0 318.75 -794.44 0 0 625.25 -397.22 0 0 -1716.37 1297.09 0 0 318.75 -899.87 0zm1414.04 252.55c45.77,-63.74 107.48,-111.97 185.12,-144.66 77.65,-32.69 167.15,-49.04 268.49,-49.04l0 353.09c-42.5,-3.26 -71.1,-4.91 -85.81,-4.91 -109.52,0 -195.34,30.66 -257.46,91.96 -62.11,61.29 -93.17,153.25 -93.17,275.84l0 622.8 -382.5 0 0 -1319.16 365.34 0 0 174.09zm1892.17 490.4c0,4.91 -2.45,39.23 -7.36,102.99l-997.94 0c17.98,81.73 60.48,146.29 127.5,193.71 67.03,47.4 150.39,71.1 250.1,71.1 68.66,0 129.55,-10.22 182.68,-30.66 53.13,-20.43 102.57,-52.71 148.34,-96.85l203.52 220.68c-124.23,142.22 -305.68,213.32 -544.34,213.32 -148.76,0 -280.34,-29.01 -394.77,-87.05 -114.42,-58.03 -202.69,-138.53 -264.81,-241.51 -62.11,-102.99 -93.17,-219.86 -93.17,-350.63 0,-129.13 30.65,-245.6 91.95,-349.41 61.3,-103.8 145.48,-184.71 252.55,-242.74 107.07,-58.03 226.8,-87.05 359.21,-87.05 129.14,0 246.01,27.8 350.63,83.37 104.62,55.57 186.76,135.26 246.43,239.07 59.66,103.8 89.49,224.35 89.49,361.66zm-684.1 -394.77c-86.63,0 -159.37,24.52 -218.22,73.57 -58.85,49.03 -94.81,116.05 -107.89,201.05l649.78 0c-13.08,-83.37 -49.04,-149.97 -107.89,-199.84 -58.85,-49.86 -130.77,-74.78 -215.77,-74.78zm2161.9 394.77c0,4.91 -2.45,39.23 -7.36,102.99l-997.94 0c17.98,81.73 60.48,146.29 127.5,193.71 67.03,47.4 150.39,71.1 250.1,71.1 68.66,0 129.55,-10.22 182.68,-30.66 53.13,-20.43 102.57,-52.71 148.34,-96.85l203.52 220.68c-124.23,142.22 -305.68,213.32 -544.34,213.32 -148.76,0 -280.34,-29.01 -394.77,-87.05 -114.42,-58.03 -202.69,-138.53 -264.81,-241.51 -62.11,-102.99 -93.17,-219.86 -93.17,-350.63 0,-129.13 30.65,-245.6 91.95,-349.41 61.3,-103.8 145.48,-184.71 252.55,-242.74 107.07,-58.03 226.8,-87.05 359.21,-87.05 129.14,0 246.01,27.8 350.63,83.37 104.62,55.57 186.76,135.26 246.43,239.07 59.66,103.8 89.49,224.35 89.49,361.66zm-684.1 -394.77c-86.63,0 -159.37,24.52 -218.22,73.57 -58.85,49.03 -94.81,116.05 -107.89,201.05l649.78 0c-13.08,-83.37 -49.04,-149.97 -107.89,-199.84 -58.85,-49.86 -130.77,-74.78 -215.77,-74.78z"/>
  </g>
 </g>
</svg>
